<svg xmlns="http://www.w3.org/2000/svg" xml:space="preserve" viewBox="0 0 500 500"><path d="m92.637 317.145-14.833.279-7.515.112c-2.51.047-5.032.038-7.549.055l-.444.003-.002-.449-.054-12.633-.002-.502.502.002 14.948.063c4.983.005 9.965.112 14.948.164l.275.003-.002.27c-.019 2.139-.086 4.268-.131 6.375zm0 0-.142-6.375c-.045-2.103-.112-4.186-.131-6.258l.273.273c-4.983.051-9.965.159-14.948.164l-14.948.063.499-.499-.054 12.633-.446-.446c2.466.018 4.927.008 7.4.055l7.433.112zM75.959 333.075l-14.833.279-7.515.112c-2.51.047-5.032.038-7.549.055l-.444.003-.002-.449-.054-12.633-.002-.502.502.002 14.948.063c4.983.005 9.965.112 14.948.164l.275.003-.002.27c-.019 2.139-.086 4.268-.131 6.375zm0 0-.142-6.375c-.045-2.104-.112-4.186-.131-6.258l.273.273c-4.983.051-9.965.159-14.948.164l-14.948.063.499-.499-.054 12.633-.446-.446c2.466.018 4.927.008 7.4.055l7.433.112zM75.959 59.714l-14.833.279-7.515.112c-2.51.047-5.032.037-7.549.055l-.444.003-.002-.449-.054-12.633-.002-.502.502.002 14.948.063c4.983.005 9.965.112 14.948.164l.275.003-.002.27c-.019 2.139-.086 4.268-.131 6.375zm0 0-.142-6.375c-.045-2.103-.112-4.186-.131-6.258l.273.273c-4.983.051-9.965.159-14.948.164l-14.948.062.499-.499-.054 12.633-.446-.446c2.466.018 4.927.008 7.4.055l7.433.112zM453.937 59.714l-14.833.279-7.515.112c-2.51.047-5.032.037-7.549.055l-.444.003-.002-.449-.054-12.633-.002-.502.502.002 14.948.063c4.983.005 9.965.112 14.948.164l.275.003-.002.27c-.019 2.139-.086 4.268-.131 6.375zm0 0-.142-6.375c-.045-2.103-.112-4.186-.131-6.258l.273.273c-4.983.051-9.966.159-14.948.164l-14.948.063.499-.499-.054 12.633-.446-.446c2.466.018 4.927.008 7.4.055l7.433.112zM437.26 75.644l-14.833.279-7.515.112c-2.51.047-5.032.037-7.549.055l-.444.003-.002-.449-.054-12.633-.002-.502.502.002 14.948.063c4.983.005 9.965.112 14.948.164l.275.003-.002.27c-.019 2.139-.086 4.268-.131 6.375zm0 0-.142-6.375c-.045-2.103-.112-4.186-.131-6.258l.273.273c-4.983.051-9.965.159-14.948.164l-14.948.063.499-.499-.054 12.633-.446-.446c2.466.018 4.927.008 7.4.055l7.433.112zM360.692 223.437l-14.833.279-7.515.112c-2.51.047-5.032.038-7.549.055l-.444.003-.002-.449-.054-12.633-.002-.502.502.002 14.948.063c4.983.005 9.965.113 14.948.164l.275.003-.002.27c-.019 2.139-.086 4.268-.131 6.375zm0 0-.142-6.375c-.045-2.104-.112-4.186-.131-6.258l.273.273c-4.983.051-9.966.159-14.948.164l-14.948.063.499-.499-.054 12.633-.446-.445c2.466.017 4.927.008 7.4.055l7.433.112zM344.014 239.367l-14.833.279-7.515.112c-2.51.047-5.032.037-7.549.055l-.444.003-.002-.449-.054-12.633-.002-.502.502.002 14.948.063c4.983.005 9.965.113 14.948.164l.275.003-.002.27c-.019 2.139-.086 4.268-.131 6.375zm0 0-.142-6.375c-.045-2.103-.112-4.186-.131-6.258l.273.273c-4.983.051-9.965.159-14.948.164l-14.948.063.499-.499-.054 12.633-.446-.446c2.466.018 4.927.008 7.4.055l7.433.112zM327.403 223.437l-14.833.279-7.515.112c-2.51.047-5.032.038-7.549.055l-.444.003-.002-.449-.054-12.633-.002-.502.502.002 14.948.063c4.983.005 9.965.113 14.948.164l.275.003-.002.27c-.019 2.139-.086 4.268-.131 6.375zm0 0-.142-6.375c-.045-2.104-.112-4.186-.131-6.258l.273.273c-4.983.051-9.966.159-14.948.164l-14.948.063.499-.499-.054 12.633-.446-.445c2.466.017 4.927.008 7.4.055l7.433.112zM453.937 333.075l-14.833.279-7.515.112c-2.51.047-5.032.038-7.549.055l-.444.003-.002-.449-.054-12.633-.002-.502.502.002 14.948.063c4.983.005 9.966.112 14.948.164l.275.003-.002.27c-.019 2.139-.086 4.268-.131 6.375zm0 0-.142-6.375c-.045-2.104-.112-4.186-.131-6.258l.273.273c-4.983.051-9.965.159-14.948.164l-14.948.063.499-.499-.054 12.633-.446-.446c2.466.018 4.927.008 7.4.055l7.433.112zM199.926 97.281l-14.833.279-7.515.112c-2.51.047-5.032.037-7.549.055l-.444.003-.002-.449-.054-12.633-.002-.502.502.002 14.948.063c4.983.005 9.965.112 14.948.164l.275.003-.002.27c-.019 2.139-.086 4.268-.131 6.375zm0 0-.142-6.375c-.045-2.103-.112-4.186-.131-6.258l.273.273c-4.983.051-9.965.159-14.948.164l-14.948.063.499-.499-.054 12.633-.446-.446c2.466.018 4.927.008 7.4.055l7.433.112zM423.225 180.971l5.887-9.491-2.907-1.8a2.65 2.65 0 0 1-1.232-2.498q.07-.831.053-1.67a2.65 2.65 0 0 1 1.386-2.41l3.013-1.616-5.28-9.845-3.012 1.616a2.65 2.65 0 0 1-2.774-.179 16 16 0 0 0-1.42-.88 2.66 2.66 0 0 1-1.399-2.408l.108-3.418-11.163-.347-.103 3.43c-.03 1.006-.647 1.881-1.557 2.311a16 16 0 0 0-1.448.777c-.857.518-1.922.548-2.773.021l-2.928-1.814-5.887 9.491 2.912 1.807a2.66 2.66 0 0 1 1.23 2.5 16 16 0 0 0-.055 1.663 2.65 2.65 0 0 1-1.386 2.407l-3.014 1.616 5.28 9.845 3.014-1.616a2.65 2.65 0 0 1 2.772.177q.686.476 1.416.874a2.66 2.66 0 0 1 1.402 2.408l-.105 3.426 11.163.347.107-3.427c.031-1.002.646-1.874 1.552-2.303a17 17 0 0 0 1.455-.78c.862-.52 1.931-.55 2.787-.019zm-9.451-7.048a9.14 9.14 0 0 1-12.38-3.737c-2.388-4.452-.72-10 3.733-12.388 4.452-2.388 10.004-.712 12.392 3.74 2.387 4.453.707 9.998-3.745 12.385M101.53 288.51l5.887-9.491-2.907-1.801a2.65 2.65 0 0 1-1.232-2.498q.071-.831.053-1.67a2.65 2.65 0 0 1 1.386-2.41l3.013-1.616-5.28-9.845-3.012 1.616a2.65 2.65 0 0 1-2.774-.179 16 16 0 0 0-1.42-.88 2.66 2.66 0 0 1-1.399-2.408l.108-3.418-11.163-.347-.103 3.43c-.03 1.006-.647 1.881-1.557 2.311a15 15 0 0 0-1.448.777c-.857.518-1.922.548-2.773.021l-2.928-1.814-5.887 9.491 2.912 1.807a2.66 2.66 0 0 1 1.23 2.5 16 16 0 0 0-.055 1.663 2.65 2.65 0 0 1-1.386 2.407l-3.014 1.616 5.28 9.845 3.014-1.616a2.65 2.65 0 0 1 2.772.177q.686.476 1.416.874a2.66 2.66 0 0 1 1.402 2.408l-.105 3.426 11.163.347.107-3.427c.031-1.002.646-1.874 1.552-2.302a17 17 0 0 0 1.455-.78c.862-.52 1.931-.55 2.787-.019zm-9.452-7.048a9.14 9.14 0 0 1-12.38-3.737c-2.388-4.452-.72-10 3.733-12.388 4.452-2.388 10.004-.712 12.392 3.74 2.388 4.453.707 9.997-3.745 12.385" style="fill:#ebebeb"/><path d="m215.868 106.738-3.91-6.777-2.074 1.198c-.61.353-1.36.319-1.95-.066a11 11 0 0 0-1.013-.586 1.86 1.86 0 0 1-1.029-1.653V96.46h-7.826v2.395c0 .702-.403 1.335-1.029 1.653q-.524.266-1.013.586a1.86 1.86 0 0 1-1.95.066L192 99.962l-3.91 6.777 2.083 1.199c.611.352.947 1.022.911 1.726a11 11 0 0 0 0 1.152c.036.701-.298 1.368-.905 1.719l-2.089 1.207 3.91 6.777 2.08-1.199a1.86 1.86 0 0 1 1.951.068q.487.318 1.009.584a1.86 1.86 0 0 1 1.027 1.653v2.396h7.826v-2.396a1.86 1.86 0 0 1 1.027-1.653q.521-.266 1.008-.584a1.86 1.86 0 0 1 1.951-.068l2.08 1.199 3.91-6.777-2.08-1.2c-.609-.351-.943-1.019-.908-1.721a11 11 0 0 0 0-1.156c-.036-.704.3-1.375.911-1.727zm-7.48 3.502a6.405 6.405 0 0 1-6.406 6.406c-3.539 0-6.412-2.867-6.412-6.406s2.873-6.412 6.412-6.412a6.41 6.41 0 0 1 6.406 6.412" style="fill:#ebebeb"/><path d="M88.835 303.84c-13.069 12.794-15.262 32.587-12.508 49.924.071.393.68.286.68-.083 0-3.947-.119-7.858-.107-11.757.071-.179.131-.346.203-.525 3.41-2.48 6.546-5.282 8.49-9.122 2.182-4.292 3.04-9.134 4.71-13.617.155-.429-.303-.303-.602-.082-7.949 5.862-10.483 12.172-12.764 20.603.107-4.376.441-8.752 1.383-13.128 1.717-8.001 5.115-15.93 10.863-21.868.213-.226-.121-.572-.348-.345" style="fill:#263238"/><path d="M91.291 305.331c2.248.076 3.658 3.669 5.41 4.718.927.558 1.83.524 2.481-.39 1.736-2.423-.646-5.413-2.886-7.085 1.602.659 2.931 1.816 4.658 2.144 1.046.192 1.859-.196 2.103-1.259.761-3.304-3.383-4.774-6.226-4.843 1.378-.958 5.329-3.563 3.23-4.844-2.127-1.286-6.763 2.439-8.275 3.665-2.222 1.803-4.873 4.498-4.973 7.318-.13 3.293 2.748 1.267 4.478.576" style="fill:#ffc727"/><path d="M91.291 305.331c2.248.076 3.658 3.669 5.41 4.718.927.558 1.83.524 2.481-.39 1.736-2.423-.646-5.413-2.886-7.085 1.602.659 2.931 1.816 4.658 2.144 1.046.192 1.859-.196 2.103-1.259.761-3.304-3.383-4.774-6.226-4.843 1.378-.958 5.329-3.563 3.23-4.844-2.127-1.286-6.763 2.439-8.275 3.665-2.222 1.803-4.873 4.498-4.973 7.318-.13 3.293 2.748 1.267 4.478.576" style="opacity:.1"/><path d="M90.641 305.886c2.875-1.307 8.396.574 8.866-.514.952-2.214-3.461-3.734-5.843-4.028 2.194-.594 6.397-1.541 6.268-3.657-.158-2.583-6.447-.362-9.63 2.079-4.01 3.075-3.984 6.042-3.321 6.636.909.816 3.185-.3 3.66-.516" style="fill:#ffc727"/><path d="M59.073 302.573c13.545 12.288 16.491 31.983 14.398 49.413-.056.396-.668.312-.682-.057-.15-3.944-.18-7.857-.34-11.752-.078-.176-.144-.34-.223-.517-3.502-2.349-6.742-5.029-8.83-8.792-2.344-4.206-3.386-9.011-5.224-13.428-.171-.423.291-.315.599-.105 8.166 5.556 10.939 11.765 13.539 20.102-.274-4.369-.774-8.729-1.881-13.066-2.02-7.93-5.717-15.724-11.686-21.439-.225-.218.095-.577.33-.359" style="fill:#263238"/><path d="M56.676 304.157c-2.244.161-3.515 3.806-5.226 4.92-.905.593-1.808.593-2.494-.295-1.827-2.356.439-5.434 2.614-7.19-1.576.719-2.86 1.926-4.573 2.32-1.038.231-1.865-.125-2.15-1.178-.886-3.273 3.199-4.899 6.037-5.076-1.414-.905-5.461-3.358-3.412-4.718 2.076-1.366 6.851 2.179 8.408 3.348 2.289 1.717 5.04 4.309 5.248 7.123.255 3.285-2.697 1.37-4.452.746" style="fill:#ffc727"/><path d="M56.676 304.157c-2.244.161-3.515 3.806-5.226 4.92-.905.593-1.808.593-2.494-.295-1.827-2.356.439-5.434 2.614-7.19-1.576.719-2.86 1.926-4.573 2.32-1.038.231-1.865-.125-2.15-1.178-.886-3.273 3.199-4.899 6.037-5.076-1.414-.905-5.461-3.358-3.412-4.718 2.076-1.366 6.851 2.179 8.408 3.348 2.289 1.717 5.04 4.309 5.248 7.123.255 3.285-2.697 1.37-4.452.746" style="opacity:.1"/><path d="M57.347 304.686c-2.922-1.197-8.369.893-8.879-.176-1.035-2.177 3.316-3.862 5.685-4.247-2.215-.51-6.451-1.296-6.402-3.415.059-2.587 6.428-.607 9.702 1.711 4.124 2.92 4.211 5.886 3.571 6.505-.878.849-3.195-.18-3.677-.378" style="fill:#ffc727"/><path d="M72.925 335.026c1 6.476 2.24 13.172 4.206 19.429.188.57 1.034.424.947-.191-.89-5.987-2.512-11.864-3.401-17.851-.904-6.058-1.387-12.2-1.04-18.327.57-10.089 3.31-20.821 9.894-28.716.145-.187-.162-.452-.311-.278-13.181 15.368-11.084 34.211-11.072 35.9-1.866-6.363-3.789-13.655-10.847-20.134-.304-.28-.542-.147-.491.328 1.262 11.801 4.543 17.962 11.385 24.271.192 1.87.433 3.731.73 5.569" style="fill:#263238"/><path d="M83.648 291.137c2.371-1.053 5.642 1.966 7.988 2.172 1.242.112 2.162-.378 2.378-1.653.582-3.389-3.395-5.291-6.561-5.899 1.994-.123 3.955.409 5.912-.12 1.182-.328 1.83-1.139 1.549-2.365-.874-3.812-5.913-3.251-8.898-1.891.948-1.688 3.735-6.38.913-6.652-2.854-.264-5.789 5.934-6.741 7.968-1.398 2.99-2.792 7.119-1.476 10.096 1.523 3.482 3.489-.069 4.936-1.656" style="fill:#ffc727"/><path d="M83.648 291.137c2.371-1.053 5.642 1.966 7.988 2.172 1.242.112 2.162-.378 2.378-1.653.582-3.389-3.395-5.291-6.561-5.899 1.994-.123 3.955.409 5.912-.12 1.182-.328 1.83-1.139 1.549-2.365-.874-3.812-5.913-3.251-8.898-1.891.948-1.688 3.735-6.38.913-6.652-2.854-.264-5.789 5.934-6.741 7.968-1.398 2.99-2.792 7.119-1.476 10.096 1.523 3.482 3.489-.069 4.936-1.656" style="opacity:.1"/><path d="M83.252 292.04c2.325-2.803 9.001-3.631 8.94-4.996-.127-2.776-5.47-2.131-8.09-1.238 1.977-1.721 5.861-4.819 4.662-6.949-1.464-2.601-6.871 2.87-8.945 7.005-2.613 5.209-1.093 8.274-.105 8.557 1.355.387 3.155-1.916 3.538-2.379M64.253 338.578l-5.813 44.416h35.374c-.729-3.936-7.313-44.467-7.313-44.467z" style="fill:#ffc727"/><path d="m43.374 383.143 51.656-.243 51.657-.088L250 382.644l103.313.167 51.656.088 51.657.244-51.657.245-51.656.088-103.313.166-103.313-.167-51.657-.089z" style="fill:#263238"/><ellipse cx="250" cy="449.04" rx="149.057" ry="21.075" style="fill:#ebebeb"/><path d="m157.573 227.672-6.209-24.43-49.038 12.463-6.481-25.5 39.188-89.312 19.437-4.94 18.898 74.359 15.692-3.988 6.526 25.678-15.692 3.988 6.209 24.43zm-33.598-44.806 24.252-6.163-8.022-31.563zM298.021 146.118q-.001 12.144-3.68 22.355-3.682 10.212-10.121 17.663-6.442 7.452-15.178 11.591-8.742 4.14-19.044 4.14-10.305 0-19.135-4.14-8.833-4.14-15.271-11.591-6.441-7.451-10.027-17.663-3.588-10.211-3.588-22.355t3.588-22.354q3.586-10.212 10.027-17.663 6.439-7.45 15.271-11.683 8.83-4.231 19.135-4.232 10.301.001 19.044 4.232 8.736 4.233 15.178 11.683 6.439 7.451 10.121 17.663 3.679 10.211 3.68 22.354m-29.623 0q-.001-12.877-5.152-20.883-5.153-8.003-13.247-8.003-8.465 0-13.523 8.003-5.061 8.005-5.06 20.883-.001 12.882 5.06 20.791 5.058 7.912 13.523 7.912 8.094.001 13.247-7.912 5.151-7.91 5.152-20.791M350.843 222.964l4.031-24.882-49.945-8.092 4.208-25.972 71.508-66.325 19.797 3.207-12.27 75.736 15.983 2.589-4.237 26.154-15.983-2.589-4.031 24.882zm-12.981-54.478 24.7 4.002 5.208-32.147zM208.675 72.461q-3.151 0-5.716-1.232a14 14 0 0 1-4.403-3.272 14.9 14.9 0 0 1-2.848-4.665 14.9 14.9 0 0 1-1.01-5.373q0-2.868 1.07-5.494a15.2 15.2 0 0 1 2.949-4.646 14.1 14.1 0 0 1 4.464-3.212q2.585-1.191 5.615-1.191 3.11 0 5.676 1.272 2.565 1.272 4.383 3.333a15.4 15.4 0 0 1 2.828 4.686 14.8 14.8 0 0 1 1.01 5.333q0 2.868-1.05 5.474a14.9 14.9 0 0 1-2.909 4.605q-1.859 2-4.443 3.191-2.587 1.191-5.616 1.191m-8.322-14.543q0 1.859.565 3.595a9.6 9.6 0 0 0 1.636 3.07 8.1 8.1 0 0 0 2.626 2.141q1.555.808 3.535.808 2.02 0 3.575-.828a8.1 8.1 0 0 0 2.626-2.202 9.8 9.8 0 0 0 1.616-3.09q.546-1.717.545-3.495 0-1.857-.586-3.595a10 10 0 0 0-1.656-3.07 7.9 7.9 0 0 0-2.625-2.121q-1.556-.788-3.494-.788-2.02 0-3.596.828a8 8 0 0 0-2.625 2.181 9.8 9.8 0 0 0-1.596 3.07 11.5 11.5 0 0 0-.546 3.496M236.226 72.663q-2.586 0-4.645-.889-2.061-.889-3.495-2.403a10.6 10.6 0 0 1-2.202-3.495 11.4 11.4 0 0 1-.768-4.161q0-2.221.768-4.201a10.6 10.6 0 0 1 2.202-3.494q1.434-1.515 3.495-2.404t4.645-.889 4.626.889q2.04.89 3.474 2.404a10.6 10.6 0 0 1 2.202 3.494q.767 1.98.767 4.201 0 2.182-.767 4.161a10.8 10.8 0 0 1-2.181 3.495q-1.415 1.516-3.474 2.403-2.062.888-4.647.889m-5.535-10.948q0 1.414.424 2.565a6.3 6.3 0 0 0 1.171 2 5.15 5.15 0 0 0 3.939 1.778 5.15 5.15 0 0 0 3.938-1.778 6.2 6.2 0 0 0 1.171-2.02q.424-1.171.424-2.585 0-1.372-.424-2.545a6.2 6.2 0 0 0-1.171-2.02 5.15 5.15 0 0 0-3.938-1.778q-1.173 0-2.182.485a5.5 5.5 0 0 0-1.757 1.333 6.2 6.2 0 0 0-1.171 2.02 7.4 7.4 0 0 0-.424 2.545M263.613 72.663q-2.505 0-4.362-1.111a7.9 7.9 0 0 1-2.909-3.009v12.321h-5.413V51.091h4.726v3.635a8.65 8.65 0 0 1 3.03-2.929q1.858-1.07 4.281-1.07 2.142 0 3.959.869a9.8 9.8 0 0 1 3.131 2.343q1.313 1.474 2.061 3.474.747 2 .747 4.222 0 2.303-.687 4.322t-1.919 3.515a8.95 8.95 0 0 1-2.929 2.343q-1.695.848-3.716.848m-1.817-4.605q1.212 0 2.242-.525a5.4 5.4 0 0 0 1.757-1.414 6.7 6.7 0 0 0 1.131-2.061 7.4 7.4 0 0 0 .404-2.423 6.8 6.8 0 0 0-.444-2.484 6.2 6.2 0 0 0-1.232-2 5.75 5.75 0 0 0-1.858-1.333 5.6 5.6 0 0 0-2.322-.485q-.768 0-1.575.263a5.5 5.5 0 0 0-1.495.748 6.6 6.6 0 0 0-1.232 1.131 4.7 4.7 0 0 0-.828 1.414v4.969a7.2 7.2 0 0 0 2.222 3.009q1.492 1.191 3.23 1.191M284.539 72.663q-2.666 0-5.211-.848t-4.363-2.424l2.02-3.393q1.94 1.374 3.777 2.08 1.839.707 3.656.707 1.615 0 2.545-.606t.929-1.737c0-1.131-.363-1.306-1.091-1.656q-1.09-.525-3.555-1.212a48 48 0 0 1-3.515-1.091q-1.455-.525-2.343-1.192-.889-.666-1.293-1.535t-.403-2.081q0-1.615.626-2.909a6.34 6.34 0 0 1 1.757-2.202q1.132-.909 2.646-1.393 1.514-.485 3.292-.485 2.383 0 4.464.687 2.08.687 3.817 2.222l-2.182 3.272q-1.615-1.212-3.131-1.777a8.6 8.6 0 0 0-3.009-.565q-1.374 0-2.303.565-.93.566-.93 1.818 0 .566.223.929.221.363.707.646.485.284 1.272.545.787.264 1.959.545 2.18.566 3.736 1.131 1.555.566 2.545 1.292.99.728 1.455 1.676.464.95.464 2.283 0 3.111-2.303 4.908-2.298 1.8-6.258 1.8M297.667 61.473V43.294h5.413v18.179zm0 10.786v-6.1h5.413v6.1z" style="fill:#263238"/><path d="M235.089 313.845h35.512v2.909h-35.512zM235.089 317.634h35.512v2.909h-35.512zM235.089 321.424h35.512v2.909h-35.512zM235.089 325.213h35.512v2.909h-35.512zM235.089 329.002h35.512v2.909h-35.512zM218.458 404.594h67.516v2.909h-67.516zM218.458 408.383h67.516v2.909h-67.516zM218.458 412.172h67.516v2.909h-67.516zM218.458 415.961h67.516v2.909h-67.516zM218.458 419.751h67.516v2.909h-67.516z" style="fill:#37474f"/><path d="M188.834 289.798c.033-.393-14.777-5.354-14.777-5.354l.875-50.886 19.639-4.214z" style="fill:#ffc727"/><path d="M188.834 289.798c.033-.393-14.777-5.354-14.777-5.354l.875-50.886 19.639-4.214z" style="opacity:.2"/><path d="M324.489 309.772c.104-.381 15.718.058 15.718.058l16.69-48.079-16.989-10.715z" style="fill:#ffc727"/><path d="M324.489 309.772c.104-.381 15.718.058 15.718.058l16.69-48.079-16.989-10.715z" style="opacity:.2"/><path d="M185.983 308.536s5.491-82.298 10.307-109.371c0 0 99.417 7.519 153.086 28.032 0 0-27.669 96.128-29.101 100.898 0 0-70.008-13.791-134.292-19.559" style="fill:#ffc727"/><path d="M274.722 210.155a3873 3873 0 0 1-4.945 29.711l-5.124 29.679-.276-.419 33.311 7.913 16.638 4.032 16.619 4.112-16.707-3.739-16.688-3.818-33.341-7.788-.337-.079.061-.341 5.305-29.647c1.783-9.88 3.624-19.75 5.484-29.616M271.067 215.803c.018.908-.706 1.841-1.746 1.932a1.97 1.97 0 0 1-1.462-.47 1.98 1.98 0 0 1-.658-1.462 1.98 1.98 0 0 1 .657-1.463c.409-.36.959-.518 1.463-.471 1.041.091 1.764 1.026 1.746 1.934m0 0a1.6 1.6 0 0 0-.548-1.197 1.6 1.6 0 0 0-1.197-.36c-.839.097-1.383.85-1.371 1.557-.013.707.53 1.464 1.371 1.559a1.6 1.6 0 0 0 1.198-.361c.34-.29.543-.74.547-1.198M269.321 228.048c.018.908-.706 1.842-1.746 1.932a1.97 1.97 0 0 1-1.462-.47 1.98 1.98 0 0 1-.658-1.462 1.98 1.98 0 0 1 .657-1.463c.409-.36.959-.518 1.463-.471 1.042.092 1.765 1.027 1.746 1.934m0 0a1.6 1.6 0 0 0-.548-1.197 1.6 1.6 0 0 0-1.197-.36c-.839.097-1.383.85-1.371 1.557-.013.707.53 1.464 1.371 1.559.407.046.856-.072 1.198-.362.341-.288.543-.739.547-1.197M267.171 240.987c.018.908-.706 1.842-1.746 1.932a1.97 1.97 0 0 1-1.462-.47 1.98 1.98 0 0 1-.658-1.462 1.98 1.98 0 0 1 .657-1.463c.409-.36.959-.518 1.463-.471 1.042.092 1.765 1.026 1.746 1.934m0 0a1.6 1.6 0 0 0-.548-1.197 1.6 1.6 0 0 0-1.197-.36c-.839.097-1.383.85-1.371 1.557-.013.707.53 1.464 1.371 1.559.407.047.856-.072 1.198-.361.34-.29.543-.74.547-1.198M265.021 253.926c.019.908-.706 1.841-1.746 1.932a1.98 1.98 0 0 1-1.462-.47 1.98 1.98 0 0 1-.658-1.462 1.98 1.98 0 0 1 .657-1.463c.409-.36.959-.518 1.463-.471 1.042.091 1.765 1.026 1.746 1.934m0 0a1.6 1.6 0 0 0-.549-1.197 1.6 1.6 0 0 0-1.197-.36c-.839.097-1.383.85-1.371 1.557-.013.707.53 1.464 1.371 1.559a1.6 1.6 0 0 0 1.198-.361c.341-.29.544-.74.548-1.198M272.347 274.561c.019.908-.706 1.841-1.746 1.932a1.98 1.98 0 0 1-1.462-.47 1.98 1.98 0 0 1-.658-1.462 1.97 1.97 0 0 1 .657-1.463c.409-.36.959-.518 1.463-.471 1.041.091 1.764 1.026 1.746 1.934m0 0a1.6 1.6 0 0 0-.549-1.197 1.6 1.6 0 0 0-1.197-.36c-.839.097-1.383.85-1.371 1.557-.013.707.53 1.464 1.371 1.559.407.047.856-.072 1.198-.362.341-.289.543-.739.548-1.197M284.56 277.54c.019.908-.706 1.842-1.746 1.932a1.98 1.98 0 0 1-1.462-.47 1.98 1.98 0 0 1-.658-1.462 1.98 1.98 0 0 1 .657-1.463c.409-.36.959-.518 1.463-.471 1.042.092 1.765 1.026 1.746 1.934m0 0a1.6 1.6 0 0 0-.548-1.197 1.6 1.6 0 0 0-1.197-.36c-.839.097-1.383.85-1.371 1.557-.013.707.53 1.464 1.371 1.559.407.046.856-.072 1.198-.362.34-.289.543-.739.547-1.197M296.774 280.52c.018.908-.706 1.841-1.746 1.932a1.98 1.98 0 0 1-1.462-.47 1.98 1.98 0 0 1-.658-1.462 1.98 1.98 0 0 1 .657-1.463c.409-.36.959-.518 1.463-.471 1.041.091 1.764 1.026 1.746 1.934m0 0a1.6 1.6 0 0 0-.548-1.197 1.6 1.6 0 0 0-1.197-.36c-.839.097-1.383.85-1.371 1.557-.013.707.53 1.464 1.371 1.559.407.046.856-.072 1.198-.362.34-.289.542-.74.547-1.197M308.987 283.499c.019.908-.706 1.841-1.746 1.932a1.97 1.97 0 0 1-1.462-.47 1.98 1.98 0 0 1-.658-1.462 1.98 1.98 0 0 1 .657-1.463c.409-.36.959-.518 1.463-.471 1.042.091 1.764 1.026 1.746 1.934m0 0a1.6 1.6 0 0 0-.548-1.197 1.6 1.6 0 0 0-1.197-.36c-.839.097-1.383.85-1.371 1.557-.013.707.53 1.464 1.371 1.559a1.6 1.6 0 0 0 1.198-.361c.34-.29.543-.74.547-1.198M321.195 286.612c-.051.907-.845 1.782-1.889 1.792a1.98 1.98 0 0 1-1.422-.581 1.98 1.98 0 0 1-.544-1.508 1.98 1.98 0 0 1 .768-1.408 1.97 1.97 0 0 1 1.495-.357c1.032.171 1.68 1.159 1.592 2.062m0 0a1.6 1.6 0 0 0-.455-1.236 1.6 1.6 0 0 0-1.166-.451c-.844.032-1.445.741-1.487 1.447-.068.704.416 1.5 1.247 1.66.402.078.859-.005 1.222-.268.363-.262.6-.695.639-1.152M262.871 266.865c.018.908-.706 1.842-1.746 1.932a1.97 1.97 0 0 1-1.462-.47 1.98 1.98 0 0 1-.658-1.462 1.98 1.98 0 0 1 .657-1.463c.409-.36.959-.519 1.463-.471 1.042.091 1.765 1.026 1.746 1.934m0 0a1.6 1.6 0 0 0-.549-1.197 1.6 1.6 0 0 0-1.197-.36c-.839.097-1.383.85-1.371 1.557-.013.707.53 1.464 1.371 1.559.407.046.856-.072 1.197-.362.343-.289.545-.739.549-1.197" style="opacity:.1"/><circle cx="223.434" cy="267.309" r="28.231" style="opacity:.2" transform="rotate(-41.961 223.434 267.318)"/><circle cx="223.434" cy="267.309" r="22.641" style="fill:#263238" transform="rotate(-69.267 223.442 267.32)"/><path d="M216.308 258.537h5.362v5.362h-5.362z" style="fill:#ffc727" transform="rotate(9.201 219.016 261.255)"/><path d="M211.872 252.387h5.362v5.362h-5.362z" style="fill:#ffc727" transform="rotate(9.201 214.58 255.104)"/><path d="M233.044 255.817h5.362v5.362h-5.362z" style="fill:#ffc727" transform="rotate(9.201 235.755 258.534)"/><path d="M208.461 273.439h5.362v5.362h-5.362z" style="fill:#ffc727" transform="rotate(9.201 211.169 276.16)"/><path d="M229.633 276.869h5.362v5.362h-5.362z" style="fill:#ffc727" transform="rotate(9.201 232.344 279.59)"/><path d="M214.612 269.004h5.362v5.362h-5.362z" style="fill:#ffc727" transform="rotate(9.201 217.32 271.723)"/><path d="M220.753 264.628h5.362v5.362h-5.362z" style="fill:#ffc727" transform="rotate(9.201 223.462 267.347)"/><path d="M226.894 260.252h5.362v5.362h-5.362z" style="fill:#ffc727" transform="rotate(9.201 229.603 262.97)"/><path d="M225.198 270.719h5.362v5.362h-5.362z" style="fill:#ffc727" transform="rotate(9.201 227.93 273.472)"/><circle cx="299.192" cy="279.14" r="28.231" style="fill:#ffc727" transform="rotate(-50.669 299.179 279.135)"/><circle cx="299.192" cy="279.14" r="28.231" style="opacity:.2" transform="rotate(-50.669 299.179 279.135)"/><path d="M326.66 285.672a23 23 0 0 1-.445 1.63l-55.028-11.737c.13-.982.306-1.964.537-2.955 3.604-15.165 18.824-24.54 33.999-20.937 15.166 3.604 24.541 18.824 20.937 33.999" style="opacity:.2"/><circle cx="299.192" cy="279.14" r="22.641" style="fill:#263238" transform="rotate(-22.676 299.2 279.154)"/><path d="M296.511 265.795h5.362v26.689h-5.362z" style="fill:#ffc727" transform="rotate(13.369 299.22 279.158)"/><path d="m328.298 285.141-57.801-13.737c3.793-15.958 19.809-25.818 35.767-22.026 15.959 3.794 25.827 19.805 22.034 35.763" style="fill:#ffc727"/><path d="m328.298 285.141-57.801-13.737c3.793-15.958 19.809-25.818 35.767-22.026 15.959 3.794 25.827 19.805 22.034 35.763" style="opacity:.2"/><path d="M250.071 295.922c.146-2.257.975-4.546 2.612-6.356.807-.912 1.884-1.628 3.07-2.064 1.192-.438 2.48-.515 3.701-.411 1.243.145 2.512.583 3.548 1.367a7.35 7.35 0 0 1 2.253 2.966c.943 2.238 1.046 4.63.589 6.848-.376-2.217-.949-4.37-1.99-6.137-1.033-1.781-2.667-2.888-4.614-3.06-1.986-.247-3.924.286-5.485 1.605-1.561 1.315-2.753 3.198-3.684 5.242" style="opacity:.1"/><path d="M193.716 238.34c.234-3.016.573-6.018.859-9.027a615 615 0 0 1 1.016-9.004c.347-3 .738-5.994 1.122-8.99.376-2.996.81-5.984 1.212-8.977l.107-.799.81.051c6.514.41 13.014.936 19.505 1.604q4.868.5 9.723 1.126c3.231.464 6.467.892 9.679 1.48l-19.517-1.208-19.497-1.261.917-.748c-.443 2.987-.855 5.978-1.324 8.961-.462 2.984-.917 5.969-1.415 8.948-.48 2.981-.995 5.958-1.52 8.933-.559 2.97-1.066 5.948-1.677 8.911M198.411 261.156c.655-3.626 2.303-7.081 4.517-10.09.551-.757 1.178-1.456 1.781-2.176.653-.674 1.332-1.326 2.002-1.987a89 89 0 0 1 2.219-1.754c.797-.505 1.584-1.032 2.394-1.517.853-.41 1.701-.832 2.562-1.222l2.682-.928 2.776-.573c.932-.136 1.879-.165 2.814-.235 3.764-.097 7.469.706 10.869 2.083-3.619-.678-7.225-1.054-10.78-.715a25.3 25.3 0 0 0-10.073 3.126c-3.105 1.695-5.855 4.033-8.178 6.749-2.313 2.73-4.228 5.822-5.585 9.239M276.287 268.782c1.15-3.501 3.259-6.695 5.867-9.37.65-.673 1.368-1.279 2.065-1.909.739-.577 1.502-1.129 2.257-1.692a87 87 0 0 1 2.44-1.431c.859-.39 1.711-.804 2.581-1.172.902-.288 1.8-.589 2.706-.856l2.785-.549 2.829-.184c.942-.007 1.883.096 2.819.155 3.742.424 7.299 1.731 10.477 3.564-3.491-1.171-7.01-2.042-10.578-2.196a25.3 25.3 0 0 0-10.408 1.706c-3.309 1.25-6.356 3.186-9.032 5.555-2.67 2.385-4.993 5.182-6.808 8.379" style="fill:#fff"/><path d="M189.141 359.252c-7.232 0-23.064-1.626-33.252-14.725-13.034-16.758-8.323-48.914-8.117-50.275l5.659.859c-.047.309-4.544 31.09 6.976 45.902 11.263 14.481 31.692 12.402 31.897 12.377l.644 5.687c-.223.027-1.624.175-3.807.175" style="fill:#ffc727"/><path d="M189.141 359.252c-7.232 0-23.064-1.626-33.252-14.725-13.034-16.758-8.323-48.914-8.117-50.275l5.659.859c-.047.309-4.544 31.09 6.976 45.902 11.263 14.481 31.692 12.402 31.897 12.377l.644 5.687c-.223.027-1.624.175-3.807.175" style="opacity:.4;fill:#fff"/><path d="M155.097 299.005q-1.549 0-3.159-.26c-9.546-1.546-13.772-7.258-15.637-11.778-1.869-4.53-2.301-10.01-1.284-16.286l12.106 1.962c-.63 3.888-.447 7.315.515 9.647.686 1.664 2.018 3.662 6.261 4.349 1.938.314 4.033.148 6.227-3.161 1.693-2.554 2.711-6.03 3.067-8.232l12.106 1.961c-.28 1.732-1.467 7.792-4.952 13.048-3.79 5.717-9.125 8.75-15.25 8.75M201.1 375.633c-.021-.261-10.256-1.896-10.256-1.896l-4.968-33.405 12.397-4.897z" style="fill:#ffc727"/><path d="M201.1 375.633c-.021-.261-10.256-1.896-10.256-1.896l-4.968-33.405 12.397-4.897z" style="opacity:.2"/><path d="M302.296 375.695c.027-.26 10.296-1.669 10.296-1.669l5.705-33.287-12.286-5.17z" style="fill:#ffc727"/><path d="M302.296 375.695c.027-.26 10.296-1.669 10.296-1.669l5.705-33.287-12.286-5.17z" style="opacity:.2"/><path d="M196.841 327.955s82.786-3.54 110.751 1.121c0 0-8.212 80.106-8.656 81.66 0 0-82.351-.222-95.224 0 0 0-6.977-53.267-6.871-82.781" style="fill:#ffc727"/><path d="M221.987 349.906s45.193-1.785 60.46.565c0 0-4.483 40.394-4.725 41.177 0 0-44.956-.112-51.983 0-.002 0-3.09-27.646-3.752-41.742" style="opacity:.2"/><path d="M228.164 391.631c-1.035 0-1.855.013-2.429.02 0 0-3.084-27.651-3.751-41.747 0 0 1.028-.04 2.823-.1z" style="opacity:.2"/><path d="M241.494 359.873a4.807 4.807 0 1 0-2.888 9.169 4.8 4.8 0 0 0 6.025-3.14 4.807 4.807 0 0 0-3.137-6.029m2.58 5.853a4.22 4.22 0 1 1-8.049-2.536 4.22 4.22 0 1 1 8.049 2.536m-2.58-5.853a4.807 4.807 0 1 0-2.888 9.169 4.8 4.8 0 0 0 6.025-3.14 4.807 4.807 0 0 0-3.137-6.029m2.58 5.853a4.22 4.22 0 1 1-8.049-2.536 4.22 4.22 0 1 1 8.049 2.536m-2.58-5.853a4.807 4.807 0 1 0-2.888 9.169 4.8 4.8 0 0 0 6.025-3.14 4.807 4.807 0 0 0-3.137-6.029m2.58 5.853a4.22 4.22 0 1 1-8.049-2.536 4.22 4.22 0 1 1 8.049 2.536m-.978-10.931c-5.341-1.682-11.028 1.285-12.711 6.618-1.681 5.336 1.28 11.027 6.619 12.708 5.333 1.68 11.025-1.283 12.706-6.619 1.683-5.333-1.28-11.027-6.614-12.707m2.25 11.331a5.56 5.56 0 0 1-6.965 3.63 5.56 5.56 0 0 1-3.628-6.967 5.56 5.56 0 0 1 6.967-3.628 5.56 5.56 0 0 1 3.626 6.965m-.715-.223a4.806 4.806 0 1 0-6.025 3.14 4.8 4.8 0 0 0 6.025-3.14m-.557-.177a4.22 4.22 0 1 1-8.049-2.536 4.22 4.22 0 1 1 8.049 2.536m-2.58-5.853a4.807 4.807 0 1 0-2.888 9.169 4.8 4.8 0 0 0 6.025-3.14 4.807 4.807 0 0 0-3.137-6.029m2.58 5.853a4.22 4.22 0 1 1-8.049-2.536 4.22 4.22 0 1 1 8.049 2.536m-2.58-5.853a4.807 4.807 0 1 0-2.888 9.169 4.8 4.8 0 0 0 6.025-3.14 4.807 4.807 0 0 0-3.137-6.029m2.58 5.853a4.22 4.22 0 1 1-8.049-2.536 4.22 4.22 0 1 1 8.049 2.536" style="fill:#ffc727"/><path d="m238.988 374.305-3.715-1.171-.624 2.695 3.305 1.041zM232.311 370.825l-1.8-3.455-2.346 1.465 1.6 3.073zM230.05 363.642l1.17-3.715-2.694-.623-1.042 3.304zM233.53 356.965l3.455-1.799-1.465-2.347-3.073 1.601zM240.712 354.704l3.716 1.171.623-2.695-3.304-1.041zM247.39 358.184l1.799 3.455 2.347-1.464-1.601-3.073zM249.651 365.367l-1.171 3.715 2.695.624 1.041-3.305zM246.171 372.044l-3.456 1.8 1.465 2.346 3.073-1.6z" style="fill:#ffc727"/><path d="M257.835 374.012a3.237 3.237 0 1 0-3.531 5.424 3.236 3.236 0 0 0 3.531-5.424m.615 4.262a2.84 2.84 0 1 1-4.762-3.1 2.84 2.84 0 0 1 4.762 3.1m-.615-4.262a3.237 3.237 0 1 0-3.531 5.424 3.236 3.236 0 0 0 3.531-5.424m.615 4.262a2.84 2.84 0 1 1-4.762-3.1 2.84 2.84 0 0 1 4.762 3.1m-.615-4.262a3.237 3.237 0 1 0-3.531 5.424 3.236 3.236 0 0 0 3.531-5.424m.615 4.262a2.84 2.84 0 1 1-4.762-3.1 2.84 2.84 0 0 1 4.762 3.1m1.342-7.265a6.824 6.824 0 0 0-9.44 1.994 6.82 6.82 0 1 0 11.431 7.443 6.82 6.82 0 0 0-1.991-9.437m-.59 7.755a3.74 3.74 0 0 1-5.173 1.095 3.743 3.743 0 0 1-1.093-5.174 3.743 3.743 0 0 1 5.174-1.093 3.74 3.74 0 0 1 1.092 5.172m-.423-.274a3.236 3.236 0 1 0-5.422-3.533 3.236 3.236 0 0 0 5.422 3.533m-.329-.216a2.84 2.84 0 1 1-4.762-3.1 2.84 2.84 0 0 1 4.762 3.1m-.615-4.262a3.237 3.237 0 1 0-3.531 5.424 3.236 3.236 0 0 0 3.531-5.424m.615 4.262a2.84 2.84 0 1 1-4.762-3.1 2.84 2.84 0 0 1 4.762 3.1m-.615-4.262a3.237 3.237 0 1 0-3.531 5.424 3.236 3.236 0 0 0 3.531-5.424m.615 4.262a2.84 2.84 0 1 1-4.762-3.1 2.84 2.84 0 0 1 4.762 3.1" style="fill:#dbdbdb"/><path d="m253.6 382.918-2.198-1.431-.891 1.635 1.955 1.273zM249.899 379.454l-.542-2.566-1.787.526.483 2.282zM249.732 374.387l1.431-2.198-1.635-.891-1.273 1.955zM253.196 370.686l2.566-.542-.526-1.786-2.282.482zM258.263 370.519l2.197 1.431.892-1.635-1.955-1.273zM261.964 373.983l.542 2.566 1.786-.526-.482-2.282zM262.131 379.05l-1.431 2.198 1.635.891 1.273-1.955zM258.667 382.751l-2.566.542.525 1.786 2.283-.482z" style="fill:#dbdbdb"/><path d="m305.594 401.414 3.182.592 9.099-61.627-3.625-.666z" style="fill:#ffc727"/><path d="m277.721 391.648 4.725-41.177 31.804-10.758s-8.656 62.367-8.656 61.701z" style="fill:#ffc727"/><path d="m277.721 391.648 4.725-41.177 31.804-10.758s-8.656 62.367-8.656 61.701z" style="opacity:.4;fill:#fff"/><path d="M200.64 352.139c-.518-3.411-.798-6.85-1.011-10.292a149 149 0 0 1-.18-5.17c-.034-1.724-.064-3.45-.013-5.175l.014-.453.441-.024c6.318-.339 12.632-.754 18.954-1.03 6.32-.312 12.64-.595 18.965-.793-6.305.571-12.613 1.057-18.923 1.515-6.308.493-12.623.847-18.934 1.277l.454-.477-.026 5.15.06 5.152q.014 2.578.09 5.156zM286.882 351.075a99 99 0 0 1 5.996-2.609c2.019-.822 4.056-1.6 6.117-2.314 2.064-.705 4.135-1.395 6.241-1.98 2.102-.592 4.224-1.139 6.392-1.494l.533-.087-.095.509c-.499 2.666-1.021 5.328-1.638 7.975.231-2.708.557-5.402.906-8.091l.438.422c-2.101.501-4.185 1.087-6.263 1.701a270 270 0 0 0-6.21 1.947z" style="fill:#fff"/><path d="m214.403 328.122.536 10.299.458 10.302.794 20.608.621 20.614.248 10.309.17 10.312-.537-10.299-.458-10.302-.793-20.608-.619-20.614-.249-10.309zM211.453 334.33c.198.887-.328 1.945-1.329 2.239a1.97 1.97 0 0 1-1.526-.172 1.97 1.97 0 0 1-.934-1.303 1.98 1.98 0 0 1 .355-1.564 1.97 1.97 0 0 1 1.341-.751c1.038-.116 1.932.658 2.093 1.551m0 0a1.6 1.6 0 0 0-.774-1.065 1.6 1.6 0 0 0-1.245-.116c-.803.261-1.188 1.106-1.036 1.798.127.695.809 1.33 1.652 1.257a1.6 1.6 0 0 0 1.102-.591c.278-.351.387-.833.301-1.283M212.162 346.679c.198.887-.328 1.945-1.329 2.239a1.97 1.97 0 0 1-1.526-.172 1.97 1.97 0 0 1-.934-1.303 1.98 1.98 0 0 1 .355-1.564 1.97 1.97 0 0 1 1.341-.751c1.038-.116 1.932.658 2.093 1.551m0 0a1.6 1.6 0 0 0-.774-1.065 1.6 1.6 0 0 0-1.245-.116c-.803.261-1.188 1.107-1.036 1.798.127.695.809 1.33 1.652 1.257.408-.035.825-.24 1.103-.591.277-.351.387-.833.3-1.283M212.612 359.788c.198.887-.328 1.945-1.329 2.239a1.97 1.97 0 0 1-1.526-.172 1.97 1.97 0 0 1-.934-1.303 1.98 1.98 0 0 1 .355-1.564c.33-.434.838-.698 1.341-.751 1.038-.116 1.932.658 2.093 1.551m0 0a1.6 1.6 0 0 0-.774-1.065 1.6 1.6 0 0 0-1.245-.116c-.803.261-1.188 1.106-1.036 1.797.127.696.809 1.33 1.652 1.257a1.6 1.6 0 0 0 1.102-.591c.278-.351.387-.832.301-1.282M213.062 372.896c.198.887-.328 1.945-1.329 2.239a1.97 1.97 0 0 1-1.526-.172 1.97 1.97 0 0 1-.934-1.303 1.98 1.98 0 0 1 .355-1.564c.33-.433.837-.698 1.341-.751 1.038-.116 1.932.658 2.093 1.551m0 0a1.6 1.6 0 0 0-.774-1.065 1.6 1.6 0 0 0-1.245-.116c-.803.261-1.188 1.106-1.036 1.798.127.695.809 1.33 1.652 1.257a1.6 1.6 0 0 0 1.102-.591c.278-.351.387-.833.301-1.283M213.512 386.005c.198.887-.328 1.945-1.329 2.239a1.97 1.97 0 0 1-1.526-.172 1.97 1.97 0 0 1-.934-1.303 1.98 1.98 0 0 1 .355-1.564 1.97 1.97 0 0 1 1.341-.751c1.038-.116 1.932.657 2.093 1.551m0 0a1.6 1.6 0 0 0-.774-1.065 1.6 1.6 0 0 0-1.245-.116c-.803.261-1.188 1.106-1.036 1.798.127.696.809 1.33 1.652 1.257a1.6 1.6 0 0 0 1.103-.591c.277-.352.386-.834.3-1.283M213.962 399.113c.198.887-.328 1.945-1.329 2.239a1.97 1.97 0 0 1-1.526-.172 1.97 1.97 0 0 1-.934-1.303 1.98 1.98 0 0 1 .355-1.564c.33-.434.837-.698 1.341-.751 1.038-.116 1.931.658 2.093 1.551m0 0a1.6 1.6 0 0 0-.774-1.065 1.6 1.6 0 0 0-1.245-.116c-.803.261-1.188 1.106-1.036 1.798.127.696.809 1.33 1.652 1.257.408-.035.825-.24 1.102-.591.278-.352.387-.833.301-1.283" style="opacity:.1"/><path d="M170.931 426.135h48.981v5.723h-48.981z" style="fill:#ffc727" transform="rotate(-16.86 195.418 429.066)"/><path d="M170.931 426.135h48.981v5.723h-48.981z" style="opacity:.4;fill:#fff" transform="rotate(-16.86 195.418 429.066)"/><path d="M191.271 424.746h5.723v8.501h-5.723z" style="fill:#ffc727" transform="rotate(-17.643 194.131 428.988)"/><path d="m172.427 446.863-12.096-52.379-36.51 8.656 17.978 51.047z" style="fill:#ffc727"/><path d="m180.528 444.2-8.101 2.663-12.096-52.379 11.652 2.774z" style="fill:#ffc727"/><path d="m180.528 444.2-8.101 2.663-12.096-52.379 11.652 2.774z" style="opacity:.2"/><circle cx="218.859" cy="421.894" r="6.214" style="fill:#ffc727"/><path d="M302.54 404.412h5.723v48.981h-5.723z" style="fill:#ffc727" transform="rotate(-73.022 305.39 428.907)"/><path d="M302.54 404.412h5.723v48.981h-5.723z" style="opacity:.4;fill:#fff" transform="rotate(-73.022 305.39 428.907)"/><path d="M302.439 426.043h8.501v5.723h-8.501z" style="fill:#ffc727" transform="rotate(-72.23 306.678 428.896)"/><path d="m328.357 446.818 12.208-52.354 36.491 8.734-18.086 51.009z" style="fill:#ffc727"/><path d="m320.262 444.137 8.095 2.681 12.208-52.354-11.658 2.75z" style="fill:#ffc727"/><path d="m320.262 444.137 8.095 2.681 12.208-52.354-11.658 2.75z" style="opacity:.2"/><path d="M275.764 421.737a6.215 6.215 0 1 0 12.43.025 6.215 6.215 0 0 0-12.43-.025M322.663 357.132c.147-.138 15.203-14.103 32.915-9.326 18.112 4.887 33.066 32.167 33.214 32.443l5.034-2.721c-.654-1.211-16.251-29.724-36.759-35.246-20.857-5.625-37.642 10.034-38.347 10.704z" style="fill:#ffc727"/><path d="M322.663 357.132c.147-.138 15.203-14.103 32.915-9.326 18.112 4.887 33.066 32.167 33.214 32.443l5.034-2.721c-.654-1.211-16.251-29.724-36.759-35.246-20.857-5.625-37.642 10.034-38.347 10.704z" style="opacity:.4;fill:#fff"/><path d="m382.118 407.712 10.846-5.726c-1.041-1.971-2.323-5.359-2.509-8.418-.241-3.964 1.332-5.358 3.067-6.275 3.8-2.007 6.068-1.211 7.617-.299 2.173 1.283 4.383 3.908 6.222 7.392l10.846-5.726c-2.968-5.622-6.613-9.736-10.834-12.228-4.211-2.482-11.025-4.499-19.577.015-6.666 3.519-10.069 9.864-9.582 17.865.382 6.296 3.085 11.848 3.904 13.4" style="fill:#ffc727"/><path d="M324.949 338.022c2.351-1.624 4.757-3.154 7.172-4.67 2.409-1.525 4.858-2.983 7.307-4.441 2.461-1.437 4.923-2.872 7.425-4.241l3.754-2.05c1.27-.652 2.522-1.333 3.808-1.959-1.17.821-2.373 1.586-3.559 2.381l-3.612 2.29c-2.41 1.525-4.858 2.983-7.308 4.439-2.462 1.436-4.924 2.871-7.426 4.239-2.496 1.38-5.001 2.743-7.561 4.012M318.72 361.423c3.366 1.918 6.557 4.083 9.705 6.308 3.13 2.25 6.216 4.561 9.124 7.121-3.368-1.916-6.558-4.081-9.705-6.308-3.128-2.251-6.214-4.562-9.124-7.121M324.249 358.545c2.598.789 5.156 1.681 7.707 2.588 2.556.896 5.084 1.866 7.611 2.836 2.519.992 5.037 1.986 7.527 3.052l3.734 1.602c1.231.568 2.475 1.104 3.695 1.701-1.302-.385-2.582-.831-3.873-1.244l-3.835-1.342c-2.556-.897-5.084-1.866-7.61-2.837-2.518-.993-5.037-1.987-7.526-3.054-2.494-1.057-4.981-2.128-7.43-3.302M331.63 340.217c2.49-.647 4.998-1.186 7.51-1.709 2.509-.534 5.033-.99 7.556-1.447 2.527-.433 5.055-.864 7.596-1.219l3.812-.529c1.277-.14 2.548-.314 3.831-.424-1.243.334-2.497.604-3.746.907l-3.764.803c-2.51.533-5.033.99-7.556 1.445-2.528.431-5.055.863-7.596 1.217-2.539.367-5.082.716-7.643.956M271.622 355.787a27 27 0 0 1 1.979-5.875c.879-1.878 1.955-3.679 3.305-5.28 1.354-1.584 3.02-2.981 5.025-3.754a8.86 8.86 0 0 1 6.311.062c2.035.793 3.64 2.503 4.505 4.469.449.982.73 2.035.846 3.112.101 1.075.058 2.193-.37 3.267-.218.528-.559 1.061-1.105 1.416a2.2 2.2 0 0 1-.904.338 2.05 2.05 0 0 1-.996-.095c-.669-.285-1.004-.823-1.292-1.308a7.6 7.6 0 0 1-.59-1.541c-.562-2.087-.619-4.21-.52-6.309.298-4.181 1.396-8.363 3.649-11.961 1.137-1.778 2.563-3.415 4.336-4.611 1.75-1.204 3.799-2.033 5.891-2.273 1.029-.249 2.092-.226 3.143-.277.527-.056 1.05.072 1.575.099.521.069 1.055.06 1.562.211 2.078.373 4.031 1.207 5.855 2.216 1.813 1.045 3.428 2.387 4.902 3.843 1.461 1.471 2.79 3.08 3.858 4.852-2.365-3.375-5.41-6.305-9-8.267-1.807-.939-3.716-1.71-5.727-2.022-.491-.137-1.006-.113-1.508-.169-.505-.015-1.008-.13-1.514-.062-1.009.074-2.025.069-3.01.334-2.016.284-3.886 1.095-5.532 2.225-1.654 1.132-2.988 2.685-4.06 4.385-2.123 3.439-3.163 7.501-3.422 11.537-.113 2.017-.062 4.079.442 5.995.241.916.674 1.948 1.305 2.237.081.008.135.051.233.054.098-.008.203.014.296-.01.19-.031.375-.082.534-.196.328-.206.588-.572.763-.992.351-.85.415-1.858.327-2.829a9.2 9.2 0 0 0-.752-2.847c-.791-1.799-2.194-3.353-4.012-4.115-1.808-.768-3.925-.83-5.802-.177-1.886.677-3.515 1.977-4.873 3.484-2.725 3.05-4.562 6.865-5.653 10.834M179.217 381.703c.965-1.819 2.384-3.393 4.041-4.637 1.655-1.244 3.555-2.209 5.6-2.682 2.034-.487 4.219-.495 6.254.123 2.036.609 3.87 1.803 5.338 3.324 1.478 1.52 2.583 3.366 3.342 5.329.745 1.967 1.192 4.074 1.034 6.229-.107 1.06-.322 2.205-1.161 3.122a2.42 2.42 0 0 1-1.685.759c-.602-.006-1.171-.095-1.723-.39a2.83 2.83 0 0 1-1.24-1.319c-.255-.545-.35-1.122-.376-1.68-.04-1.12.202-2.184.531-3.196.671-2.027 1.773-3.853 3.061-5.508a22.2 22.2 0 0 1 4.527-4.351c3.388-2.46 7.704-3.827 11.914-3.276 2.078.281 4.14.881 5.959 1.941 1.835 1.025 3.426 2.448 4.723 4.074 1.296 1.633 2.306 3.468 3.084 5.38.778 1.913 1.352 3.91 1.634 5.948-.84-4.007-2.488-7.899-5.113-11.005-1.3-1.552-2.867-2.884-4.645-3.823-1.763-.973-3.741-1.495-5.732-1.718-4-.435-8.058.84-11.285 3.228-3.223 2.371-5.86 5.68-7.193 9.423-.314.933-.533 1.909-.504 2.849.022.933.35 1.829 1.099 2.207.353.203.832.282 1.25.289a1.5 1.5 0 0 0 1.054-.471c.584-.609.834-1.605.923-2.561.157-1.954-.247-3.975-.946-5.842-.708-1.872-1.76-3.618-3.12-5.079-1.357-1.459-3.067-2.597-4.959-3.216-1.889-.629-3.96-.681-5.928-.264-3.937.837-7.585 3.299-9.758 6.793M132.953 140.208c-.113-4.115-.986-8.258-2.901-11.868-.959-1.788-2.231-3.44-3.901-4.547-1.667-1.082-3.737-1.527-5.676-1.213-1.947.306-3.68 1.481-4.878 3.038a9.2 9.2 0 0 0-1.41 2.585c-.318.922-.496 1.916-.358 2.825.069.449.234.866.504 1.145.128.149.295.242.472.318.085.045.192.049.285.08.096.02.158-.009.239.003.681-.13 1.349-1.029 1.801-1.861.947-1.74 1.489-3.731 1.86-5.716.711-3.981.671-8.174-.57-12.02-.634-1.907-1.56-3.734-2.896-5.227-1.329-1.49-2.951-2.724-4.841-3.481-.893-.492-1.881-.729-2.843-1.043-.475-.186-.991-.194-1.485-.301-.501-.065-.995-.211-1.505-.196-2.027-.177-4.065.116-6.044.597-3.955 1.049-7.611 3.167-10.713 5.88 1.46-1.465 3.134-2.711 4.904-3.791 1.779-1.062 3.667-1.979 5.677-2.562 2.011-.545 4.108-.889 6.214-.755.529-.026 1.044.111 1.567.168.516.098 1.055.099 1.553.279 1.008.301 2.047.532 2.986 1.019 1.974.732 3.766 2.026 5.178 3.613 1.436 1.584 2.43 3.514 3.11 5.512 1.329 4.031 1.397 8.355.688 12.486-.404 2.062-.967 4.11-2.01 6.003a7.7 7.7 0 0 1-.941 1.356c-.395.402-.849.845-1.566.962a2.05 2.05 0 0 1-.99-.146 2.2 2.2 0 0 1-.797-.544c-.445-.475-.65-1.074-.735-1.638-.16-1.144.065-2.24.42-3.261a10 10 0 0 1 1.564-2.82c1.309-1.702 3.276-2.98 5.441-3.264a8.85 8.85 0 0 1 6.144 1.447c1.762 1.229 3.047 2.984 3.984 4.845.929 1.877 1.543 3.883 1.949 5.916.404 2.034.593 4.111.52 6.177M353.77 192.371c-4.028-.85-8.261-.968-12.218.052-1.962.516-3.865 1.367-5.332 2.732-1.441 1.368-2.357 3.278-2.504 5.237-.157 1.964.581 3.924 1.816 5.452a9.2 9.2 0 0 0 2.184 1.974c.822.524 1.748.93 2.664 1.008.453.037.897-.026 1.231-.223.174-.089.304-.23.419-.384.064-.072.093-.175.145-.258.042-.088.028-.156.059-.231.033-.693-.686-1.552-1.389-2.185-1.471-1.326-3.281-2.318-5.124-3.142-3.705-1.62-7.792-2.56-11.822-2.251-2.002.172-3.995.646-5.759 1.596-1.759.944-3.337 2.234-4.514 3.895-.687.754-1.148 1.659-1.677 2.521-.292.419-.42.918-.639 1.374-.181.472-.438.918-.541 1.417-.645 1.93-.836 3.98-.83 6.016.097 4.09 1.304 8.14 3.218 11.79-1.084-1.761-1.905-3.68-2.542-5.653-.617-1.978-1.069-4.028-1.166-6.119-.06-2.083.094-4.202.716-6.219.098-.52.351-.99.529-1.485.216-.479.343-1.003.634-1.445.528-.91.995-1.866 1.688-2.666 1.173-1.749 2.849-3.189 4.721-4.192 1.876-1.027 3.984-1.543 6.086-1.738 4.23-.351 8.451.591 12.302 2.244 1.911.874 3.771 1.899 5.368 3.356q.603.54 1.099 1.232c.299.477.623 1.022.57 1.747a2.05 2.05 0 0 1-.373.929 2.2 2.2 0 0 1-.715.648c-.565.322-1.196.381-1.765.332-1.15-.112-2.163-.586-3.073-1.169a10.1 10.1 0 0 1-2.378-2.179c-1.35-1.67-2.133-3.881-1.905-6.052.209-2.155 1.257-4.198 2.84-5.637 1.606-1.427 3.612-2.266 5.641-2.743 2.042-.465 4.136-.595 6.208-.515s4.136.381 6.128.934M291.86 127.671c-.684-2.369-.776-4.903-.391-7.35.383-2.447 1.212-4.854 2.566-6.962 1.334-2.11 3.195-3.935 5.446-5.098 2.245-1.172 4.803-1.681 7.321-1.604 2.525.068 5.007.722 7.292 1.764 2.275 1.057 4.413 2.485 6.068 4.449.789.989 1.551 2.142 1.597 3.59.02.715-.27 1.479-.783 1.997-.508.486-1.063.881-1.762 1.084-.688.211-1.453.159-2.108-.091-.659-.248-1.214-.655-1.695-1.105-.959-.914-1.638-2.02-2.199-3.156-1.114-2.285-1.7-4.763-1.982-7.25a26.6 26.6 0 0 1 .229-7.491c.836-4.928 3.376-9.687 7.421-12.735 2.005-1.497 4.262-2.709 6.698-3.326 2.42-.661 4.966-.778 7.434-.477 2.473.306 4.873 1.023 7.142 2.002 2.269.98 4.435 2.202 6.39 3.702-4.062-2.748-8.731-4.716-13.588-5.196-2.417-.246-4.883-.081-7.203.602-2.335.64-4.478 1.849-6.38 3.327-1.88 1.505-3.48 3.356-4.649 5.461-1.179 2.1-1.949 4.421-2.356 6.799-.779 4.748-.276 9.805 1.729 14.152.517 1.069 1.15 2.096 1.976 2.889.81.79 1.879 1.308 2.88.991.492-.128.976-.467 1.354-.825.354-.363.538-.833.532-1.35-.013-1.05-.646-2.121-1.376-3.022-1.515-1.82-3.562-3.215-5.734-4.233-2.184-1.013-4.558-1.632-6.957-1.741-2.396-.11-4.826.351-6.975 1.416-2.154 1.054-3.976 2.755-5.312 4.769-2.668 4.034-3.714 9.211-2.625 14.018" style="fill:#263238"/><path d="M175.874 381.922a4.252 4.252 0 1 0-2.557 8.111 4.252 4.252 0 0 0 2.557-8.111m2.282 5.177a3.732 3.732 0 1 1-7.12-2.243 3.732 3.732 0 1 1 7.12 2.243m-2.282-5.177a4.252 4.252 0 1 0-2.557 8.111 4.252 4.252 0 0 0 2.557-8.111m2.282 5.177a3.732 3.732 0 1 1-7.12-2.243 3.732 3.732 0 1 1 7.12 2.243m-2.282-5.177a4.252 4.252 0 1 0-2.557 8.111 4.252 4.252 0 0 0 2.557-8.111m2.282 5.177a3.732 3.732 0 1 1-7.12-2.243 3.732 3.732 0 1 1 7.12 2.243m-.865-9.67a8.966 8.966 0 0 0-11.244 5.855c-1.487 4.72 1.133 9.755 5.855 11.242a8.964 8.964 0 0 0 11.24-5.856c1.489-4.717-1.132-9.755-5.851-11.241m1.99 10.024a4.92 4.92 0 0 1-6.161 3.212 4.92 4.92 0 0 1-3.209-6.163 4.92 4.92 0 0 1 6.163-3.209 4.917 4.917 0 0 1 3.207 6.16m-.632-.198a4.252 4.252 0 1 0-5.33 2.778 4.25 4.25 0 0 0 5.33-2.778m-.493-.156a3.732 3.732 0 1 1-7.12-2.243 3.732 3.732 0 1 1 7.12 2.243m-2.282-5.177a4.252 4.252 0 1 0-2.557 8.111 4.252 4.252 0 0 0 2.557-8.111m2.282 5.177a3.732 3.732 0 1 1-7.12-2.243 3.732 3.732 0 1 1 7.12 2.243m-2.282-5.177a4.252 4.252 0 1 0-2.557 8.111 4.252 4.252 0 0 0 2.557-8.111m2.282 5.177a3.732 3.732 0 1 1-7.12-2.243 3.732 3.732 0 1 1 7.12 2.243" style="fill:#455a64"/><path d="m173.657 394.688-3.287-1.035-.551 2.384 2.923.921zM167.75 391.61l-1.592-3.057-2.075 1.296 1.415 2.719zM165.75 385.256l1.036-3.287-2.384-.551-.921 2.923zM168.829 379.349l3.056-1.592-1.296-2.076-2.718 1.416zM175.182 377.349l3.287 1.035.552-2.383-2.924-.921zM181.089 380.427l1.592 3.057 2.076-1.296-1.416-2.718zM183.09 386.781l-1.036 3.287 2.384.552.921-2.924zM180.011 392.688l-3.057 1.592 1.296 2.076 2.719-1.416z" style="fill:#455a64"/><path d="M341.674 353.349c4.508-6.074 3.238-14.655-2.836-19.162-6.076-4.509-14.657-3.239-19.164 2.834-4.509 6.076-3.239 14.657 2.837 19.166 6.073 4.508 14.654 3.239 19.163-2.838m-5.863-4.351a6.397 6.397 0 1 1-10.274-7.625 6.396 6.396 0 0 1 8.95-1.323 6.397 6.397 0 0 1 1.324 8.948" style="fill:#263238"/><path d="m324.963 357.299-4.23-3.139-1.988 3.168 3.762 2.792zM317.97 349.899l-.772-5.211-3.646.834.686 4.635zM318.257 339.721l3.14-4.23-3.168-1.988-2.792 3.762zM325.658 332.728l5.211-.772-.834-3.646-4.635.686zM335.836 333.015l4.23 3.14 1.988-3.168-3.762-2.792zM342.829 340.416l.771 5.211 3.646-.834-.686-4.635zM342.542 350.594l-3.14 4.23 3.168 1.988 2.792-3.762zM335.141 357.587l-5.211.771.834 3.646 4.635-.685zM325.767 345.843l2.91 3.67 4.634-.688 1.72-4.353-2.907-3.668-4.634.684zm5.516-1.878a1.484 1.484 0 1 1-1.77 2.385 1.484 1.484 0 0 1 1.77-2.385M351.943 86.601a3.722 3.722 0 1 0-2.236 7.098 3.717 3.717 0 0 0 4.664-2.431 3.72 3.72 0 0 0-2.428-4.667m1.997 4.53a3.267 3.267 0 1 1-6.232-1.963 3.267 3.267 0 0 1 6.232 1.963m-1.997-4.53a3.722 3.722 0 1 0-2.236 7.098 3.717 3.717 0 0 0 4.664-2.431 3.72 3.72 0 0 0-2.428-4.667m1.997 4.53a3.267 3.267 0 1 1-6.232-1.963 3.267 3.267 0 0 1 6.232 1.963m-1.997-4.53a3.722 3.722 0 1 0-2.236 7.098 3.717 3.717 0 0 0 4.664-2.431 3.72 3.72 0 0 0-2.428-4.667m1.997 4.53a3.267 3.267 0 1 1-6.232-1.963 3.267 3.267 0 0 1 6.232 1.963m-.756-8.461a7.842 7.842 0 1 0 5.12 9.836c1.302-4.128-.992-8.536-5.12-9.836m1.741 8.771c-.713 2.262-3.131 3.523-5.392 2.81s-3.521-3.131-2.808-5.393a4.304 4.304 0 0 1 5.393-2.808 4.303 4.303 0 0 1 2.807 5.391m-.553-.173a3.72 3.72 0 1 0-7.096-2.237 3.72 3.72 0 1 0 7.096 2.237m-.432-.137a3.267 3.267 0 1 1-6.232-1.963 3.267 3.267 0 0 1 6.232 1.963m-1.997-4.53a3.722 3.722 0 1 0-2.236 7.098 3.717 3.717 0 0 0 4.664-2.431 3.72 3.72 0 0 0-2.428-4.667m1.997 4.53a3.267 3.267 0 1 1-6.232-1.963 3.267 3.267 0 0 1 6.232 1.963m-1.997-4.53a3.722 3.722 0 1 0-2.236 7.098 3.717 3.717 0 0 0 4.664-2.431 3.72 3.72 0 0 0-2.428-4.667m1.997 4.53a3.267 3.267 0 1 1-6.232-1.963 3.267 3.267 0 0 1 6.232 1.963" style="fill:#263238"/><path d="m350.003 97.772-2.876-.906-.482 2.086 2.558.806zM344.834 95.078l-1.393-2.674-1.816 1.133 1.239 2.379zM343.084 89.518l.907-2.876-2.086-.482-.806 2.558zM345.778 84.349l2.675-1.393-1.134-1.816-2.379 1.239zM351.338 82.599l2.876.906.483-2.086-2.558-.806zM356.507 85.293l1.393 2.675 1.816-1.134-1.239-2.379zM358.257 90.853l-.906 2.876 2.086.483.806-2.558zM355.563 96.022l-2.674 1.393 1.133 1.816 2.379-1.239zM313.728 229.466a3.722 3.722 0 1 0-2.236 7.098 3.717 3.717 0 0 0 4.664-2.431 3.72 3.72 0 0 0-2.428-4.667m1.996 4.53a3.266 3.266 0 1 1-6.231-1.963 3.267 3.267 0 0 1 6.231 1.963m-1.996-4.53a3.722 3.722 0 1 0-2.236 7.098 3.717 3.717 0 0 0 4.664-2.431 3.72 3.72 0 0 0-2.428-4.667m1.996 4.53a3.266 3.266 0 1 1-6.231-1.963 3.267 3.267 0 0 1 6.231 1.963m-1.996-4.53a3.722 3.722 0 1 0-2.236 7.098 3.717 3.717 0 0 0 4.664-2.431 3.72 3.72 0 0 0-2.428-4.667m1.996 4.53a3.266 3.266 0 1 1-6.231-1.963 3.267 3.267 0 0 1 6.231 1.963m-.756-8.461a7.842 7.842 0 1 0 5.12 9.836c1.302-4.128-.992-8.536-5.12-9.836m1.741 8.771a4.303 4.303 0 0 1-5.392 2.81 4.304 4.304 0 0 1-2.808-5.393 4.304 4.304 0 0 1 5.393-2.808 4.303 4.303 0 0 1 2.807 5.391m-.553-.173a3.72 3.72 0 1 0-7.096-2.237 3.72 3.72 0 1 0 7.096 2.237m-.432-.137a3.266 3.266 0 1 1-6.231-1.963 3.267 3.267 0 0 1 6.231 1.963m-1.996-4.53a3.722 3.722 0 1 0-2.236 7.098 3.717 3.717 0 0 0 4.664-2.431 3.72 3.72 0 0 0-2.428-4.667m1.996 4.53a3.266 3.266 0 1 1-6.231-1.963 3.267 3.267 0 0 1 6.231 1.963m-1.996-4.53a3.722 3.722 0 1 0-2.236 7.098 3.717 3.717 0 0 0 4.664-2.431 3.72 3.72 0 0 0-2.428-4.667m1.996 4.53a3.266 3.266 0 1 1-6.231-1.963 3.267 3.267 0 0 1 6.231 1.963" style="fill:#263238"/><path d="m311.787 240.637-2.876-.906-.482 2.086 2.558.806zM306.618 237.943l-1.392-2.674-1.817 1.133 1.239 2.379zM304.868 232.383l.907-2.876-2.086-.482-.806 2.558zM307.562 227.214l2.675-1.392-1.134-1.817-2.379 1.239zM313.122 225.464l2.876.907.483-2.086-2.558-.806zM318.291 228.158l1.393 2.675 1.816-1.134-1.239-2.379zM320.041 233.718l-.906 2.876 2.086.483.806-2.558zM317.347 238.887l-2.674 1.393 1.133 1.816 2.379-1.239zM95.021 116.993c1.542-6.328-2.339-12.709-8.667-14.251-6.33-1.542-12.712 2.339-14.254 8.667-1.542 6.33 2.339 12.712 8.669 14.254 6.329 1.541 12.71-2.34 14.252-8.67m-6.108-1.488a5.506 5.506 0 0 1-6.655 4.049 5.507 5.507 0 0 1-4.049-6.657 5.506 5.506 0 0 1 6.657-4.046 5.506 5.506 0 0 1 4.047 6.654" style="fill:#263238"/><path d="m83.088 125.723-4.407-1.074-.516 3.179 3.919.955zM75.062 122.195l-2.357-3.876-2.613 1.883 2.096 3.447zM71.881 114.024l1.074-4.406-3.179-.517-.955 3.92zM75.41 105.998l3.875-2.357-1.882-2.613-3.447 2.097zM83.58 102.818l4.407 1.074.517-3.179-3.92-.955zM91.606 106.346l2.357 3.876 2.613-1.883-2.096-3.447zM94.787 114.517l-1.074 4.407 3.179.516.955-3.92zM91.258 122.543l-3.875 2.357 1.883 2.613 3.447-2.097zM79.889 116.366l3.537 1.937 3.445-2.098-.093-4.029-3.535-1.936-3.447 2.094zm3.747-3.337c.688.167 1.107.857.939 1.545a1.278 1.278 0 1 1-.939-1.545" style="fill:#263238"/><path d="M361.59 238.938c-2.69-4.096-4.202-8.703-4.202-13.573 0-17.196 18.883-31.138 42.162-31.138s42.145 13.943 42.145 31.138-18.866 31.138-42.145 31.138c-11.288 0-21.521-3.27-29.081-8.615l-14.523 3.693z" style="fill:#fff"/><path d="M361.59 238.938c-2.538-3.781-4.129-8.246-4.296-12.833-.126-4.577 1.002-9.208 3.353-13.169 2.298-3.99 5.573-7.354 9.273-10.06 3.704-2.721 7.875-4.776 12.228-6.221 4.354-1.455 8.891-2.327 13.467-2.693 4.583-.335 9.197-.051 13.726.698 1.125.231 2.267.385 3.378.68l3.33.896 3.253 1.149c1.082.39 2.11.917 3.168 1.369 4.152 1.975 8.045 4.563 11.319 7.83 3.266 3.254 5.9 7.23 7.289 11.679 1.386 4.433 1.487 9.299.138 13.757-1.312 4.473-3.885 8.49-7.107 11.787-3.229 3.31-7.091 5.944-11.222 7.964-4.13 2.044-8.58 3.375-13.093 4.195-4.521.776-9.134 1.108-13.712.785-4.577-.289-9.124-1.125-13.48-2.563-4.351-1.433-8.538-3.434-12.264-6.113l.188.035-14.552 3.578-.22.054.093-.205zm0 0-5.544 12.686-.127-.151 14.494-3.807.1-.026.088.061c7.478 5.162 16.497 7.849 25.524 8.332 4.524.279 9.074-.091 13.518-.894 4.44-.825 8.814-2.144 12.858-4.162 4.046-1.993 7.815-4.583 10.946-7.813 3.125-3.218 5.595-7.111 6.844-11.412 1.287-4.288 1.164-8.944-.165-13.196-1.321-4.273-3.847-8.124-7.014-11.298-3.173-3.185-6.969-5.729-11.034-7.677-1.036-.446-2.042-.967-3.103-1.352l-3.191-1.138-3.271-.89c-1.091-.294-2.215-.447-3.321-.678-4.455-.756-9-1.03-13.519-.74-4.513.321-8.995 1.141-13.301 2.538-4.306 1.387-8.436 3.377-12.109 6.026-3.673 2.633-6.909 5.923-9.243 9.806-2.376 3.863-3.561 8.407-3.509 12.945.091 4.547 1.6 9.02 4.079 12.84" style="fill:#263238"/><path d="M377.861 230.463v2.315h-9.435V219.19h9.263v2.316h-6.621v3.272h5.722v2.144h-5.722v3.54h6.793zM379.929 232.779v-13.588h6.01q.938 0 1.731.393a4.5 4.5 0 0 1 1.368 1.033q.575.642.899 1.455t.325 1.636q0 1.32-.66 2.402a3.78 3.78 0 0 1-1.789 1.559l3.101 5.11h-2.967l-2.774-4.555h-2.603v4.555zm2.641-6.871h3.311q.364 0 .679-.172t.546-.469q.23-.296.363-.698.135-.402.135-.861 0-.478-.153-.88a2.3 2.3 0 0 0-.412-.698 1.9 1.9 0 0 0-.593-.46 1.55 1.55 0 0 0-.68-.163h-3.195zM392.654 232.779v-13.588h6.01q.938 0 1.731.393a4.5 4.5 0 0 1 1.368 1.033q.575.642.899 1.455t.325 1.636q0 1.32-.66 2.402a3.78 3.78 0 0 1-1.789 1.559l3.1 5.11h-2.967l-2.775-4.555h-2.602v4.555zm2.642-6.871h3.31q.364 0 .679-.172t.546-.469q.23-.296.363-.698.135-.402.135-.861 0-.478-.153-.88a2.3 2.3 0 0 0-.412-.698 1.9 1.9 0 0 0-.593-.46 1.55 1.55 0 0 0-.68-.163h-3.195zM411.18 232.874q-1.492 0-2.708-.583a6.6 6.6 0 0 1-2.086-1.55 7.1 7.1 0 0 1-1.35-2.21 7 7 0 0 1-.477-2.545q0-1.358.507-2.603a7.2 7.2 0 0 1 1.396-2.201 6.7 6.7 0 0 1 2.115-1.521 6.3 6.3 0 0 1 2.66-.565q1.473 0 2.689.603a6.7 6.7 0 0 1 2.076 1.579 7.3 7.3 0 0 1 1.34 2.22q.478 1.244.478 2.526 0 1.359-.497 2.593a7.1 7.1 0 0 1-1.378 2.182 6.6 6.6 0 0 1-2.105 1.512 6.3 6.3 0 0 1-2.66.563m-3.943-6.889q0 .88.268 1.703.269.823.775 1.455.507.631 1.244 1.014.736.383 1.675.383.957 0 1.693-.392a3.9 3.9 0 0 0 1.244-1.043q.507-.651.766-1.464a5.4 5.4 0 0 0 .258-1.655q0-.88-.277-1.703a4.7 4.7 0 0 0-.784-1.455 3.75 3.75 0 0 0-1.244-1.004 3.6 3.6 0 0 0-1.655-.374q-.958 0-1.703.393a3.8 3.8 0 0 0-1.244 1.033 4.6 4.6 0 0 0-.756 1.455 5.4 5.4 0 0 0-.26 1.654M419.849 232.779v-13.588h6.01q.938 0 1.731.393a4.5 4.5 0 0 1 1.368 1.033q.575.642.899 1.455t.325 1.636q0 1.32-.66 2.402a3.78 3.78 0 0 1-1.789 1.559l3.101 5.11h-2.967l-2.774-4.555h-2.603v4.555zm2.641-6.871h3.311q.363 0 .679-.172t.546-.469q.23-.296.363-.698.135-.402.135-.861 0-.478-.153-.88a2.3 2.3 0 0 0-.412-.698 1.9 1.9 0 0 0-.593-.46 1.55 1.55 0 0 0-.68-.163h-3.195z" style="fill:#263238"/></svg>