<svg width="51" height="41" viewBox="0 0 51 41" fill="none" xmlns="http://www.w3.org/2000/svg">
<path d="M25.7842 0C28.3144 1.00241 45.1828 5.38837 51 6.98362L50.9252 34.0202C47.4069 34.8175 49.7019 34.476 25.4545 40.9126L0.0534883 34.0745C-0.120319 22.4956 0.185084 6.88826 0.185084 6.88826C0.185084 6.88826 17.135 2.2459 25.7842 0Z" fill="#05A51D"/>
<path d="M4.30357 7.87179L25.5417 2.22681V13.7423L4.30357 7.87179Z" fill="white"/>
<path d="M25.5746 13.851L48.8372 7.56909L48.7391 32.4676L25.6074 38.684L25.5746 13.851Z" fill="white"/>
<path d="M30.4348 20.4283L33.6621 19.5029L33.6274 30.7813L30.4116 31.5911L30.4348 20.4283Z" fill="#05A51D"/>
<path d="M42.4882 17.2819L45.7156 16.3564L45.6809 27.6349L42.4651 28.4446L42.4882 17.2819Z" fill="#05A51D"/>
<path d="M11.9639 32.5657C14.5298 32.5657 16.6099 28.6619 16.6099 23.8463C16.6099 19.0307 14.5298 15.127 11.9639 15.127C9.39801 15.127 7.31794 19.0307 7.31794 23.8463C7.31794 28.6619 9.39801 32.5657 11.9639 32.5657Z" fill="#FDFFFF"/>
<path d="M10.7206 30.4634C12.2023 30.4634 13.4035 27.5374 13.4035 23.9281C13.4035 20.3188 12.2023 17.3928 10.7206 17.3928C9.23891 17.3928 8.03774 20.3188 8.03774 23.9281C8.03774 27.5374 9.23891 30.4634 10.7206 30.4634Z" fill="#05A51D"/>
</svg>
